HIERARCHY
ROOT Hips
{
    OFFSET 0.0 0.0 0.0
    CHANNELS 6 Xposition Yposition Zposition Zrotation Xrotation Yrotation
    JOINT LeftHipJoint
    {
        OFFSET 0.1 0.0 0.0
        CHANNELS 3 Zrotation Xrotation Yrotation
        JOINT LeftUpLeg
        {
            OFFSET 123.65261490791379 0.0 0.0
            CHANNELS 3 Zrotation Xrotation Yrotation
            JOINT LeftLeg
            {
                OFFSET 0.0 0.0 -418.49960932519537
                CHANNELS 3 Zrotation Xrotation Yrotation
                JOINT LeftFoot
                {
                    OFFSET 0.0 0.0 -397.7219388507013
                    CHANNELS 3 Zrotation Xrotation Yrotation
                    End Site
                    {
                        OFFSET 0.0 -0.1 0.0
                    }
                }
            }
        }
    }
    JOINT LowerBack
    {
        OFFSET 0.0 0.0 0.1
        CHANNELS 3 Zrotation Xrotation Yrotation
        JOINT Spine
        {
            OFFSET 0.0 0.0 217.35512497193145
            CHANNELS 3 Zrotation Xrotation Yrotation
            JOINT Spine1
            {
                OFFSET 0.0 0.0 251.14429307938732
                CHANNELS 3 Zrotation Xrotation Yrotation
                JOINT LeftShoulder
                {
                    OFFSET 0.1 0.0 0.0
                    CHANNELS 3 Zrotation Xrotation Yrotation
                    JOINT LeftArm
                    {
                        OFFSET 142.84734576400652 0.0 0.0
                        CHANNELS 3 Zrotation Xrotation Yrotation
                        JOINT LeftForeArm
                        {
                            OFFSET 266.6717320945535 0.0 0.0
                            CHANNELS 3 Zrotation Xrotation Yrotation
                            JOINT LeftHand
                            {
                                OFFSET 232.07562795080113 0.0 0.0
                                CHANNELS 3 Zrotation Xrotation Yrotation
                                End Site
                                {
                                    OFFSET 0.1 0.0 0.0
                                }
                            }
                        }
                    }
                }
                JOINT Neck
                {
                    OFFSET 0.0 0.0 0.1
                    CHANNELS 3 Zrotation Xrotation Yrotation
                    JOINT Neck1
                    {
                        OFFSET 0.0 0.0 105.55021538114711
                        CHANNELS 3 Zrotation Xrotation Yrotation
                        End Site
                        {
                            OFFSET 0.0 0.0 105.91471704169068
                        }
                    }
                }
                JOINT RightShoulder
                {
                    OFFSET -0.1 0.0 0.0
                    CHANNELS 3 Zrotation Xrotation Yrotation
                    JOINT RightArm
                    {
                        OFFSET -142.84734576400652 0.0 0.0
                        CHANNELS 3 Zrotation Xrotation Yrotation
                        JOINT RightForeArm
                        {
                            OFFSET -266.6717320945535 0.0 0.0
                            CHANNELS 3 Zrotation Xrotation Yrotation
                            JOINT RightHand
                            {
                                OFFSET -232.07562795080113 0.0 0.0
                                CHANNELS 3 Zrotation Xrotation Yrotation
                                End Site
                                {
                                    OFFSET -0.1 0.0 0.0
                                }
                            }
                        }
                    }
                }
            }
        }
    }
    JOINT RightHipJoint
    {
        OFFSET -0.1 0.0 0.0
        CHANNELS 3 Zrotation Xrotation Yrotation
        JOINT RightUpLeg
        {
            OFFSET -123.65261490791379 0.0 0.0
            CHANNELS 3 Zrotation Xrotation Yrotation
            JOINT RightLeg
            {
                OFFSET 0.0 0.0 -418.49960932519537
                CHANNELS 3 Zrotation Xrotation Yrotation
                JOINT RightFoot
                {
                    OFFSET 0.0 0.0 -397.7219388507013
                    CHANNELS 3 Zrotation Xrotation Yrotation
                    End Site
                    {
                        OFFSET 0.0 -0.1 0.0
                    }
                }
            }
        }
    }
}
MOTION
Frames: 4
Frame Time: 0.03333333333333333
0.0 0.0 822.3830070177111 20.142755481645764 -5.196512379463503 5.599177506992678 -3.1805546814635164e-15 1.6552148617688095e-32 -5.963540027744093e-16 -0.2835427659398449 -2.3678823214571887 -1.7993470863229106 2.137988433445907 22.96589266642604 -0.2520977120162071 -3.1805546814635168e-15 -1.5902773407317584e-15 -1.5902773407317584e-15 -3.1805546814635164e-15 1.6552148617688095e-32 -5.963540027744093e-16 -0.4292982716357403 -3.5807382794617975 -5.329358073833428 -4.743392756969947 -2.069889357384791e-16 -4.0648316582308235e-16 0.0 0.0 0.0 -45.883447370711764 -68.00747814693864 -5.315914159534313 -121.29698569270185 -3.595776695062506e-15 6.583330457613669e-15 3.1805546814635168e-15 0.0 0.0 0.0 0.0 0.0 9.008403555888613 -0.8014278900496606 -1.854617779520556 0.0 0.0 0.0 46.495077463920154 52.163661561313354 -82.15956685713549 90.87437422850772 1.3527878753106195e-14 4.394889995989404e-15 0.0 0.0 1.5902773407317584e-15 -3.1805546814635164e-15 1.6552148617688095e-32 -5.963540027744093e-16 -0.5507382430389783 -4.587588792994077 -3.890094605362839 1.7023628628513654 29.85377031547087 0.9133270434132141 -3.1805546814635168e-15 1.1034765745125397e-32 -3.975693351829396e-16
0.0 0.0 822.3830070177111 20.125772843326608 -4.969050793962308 5.652606376646302 0.0 0.0 0.0 -0.3375543948096032 -2.772278083634555 -1.91174756876726 2.177854496694142 23.333403535115448 -0.12106840117475288 0.0 0.0 -3.975693351829396e-16 0.0 0.0 0.0 -0.45290738591412755 -3.714818864466962 -5.399776567511355 -4.714854645661833 -2.6492092974463064e-16 -2.0985933963966835e-16 0.0 0.0 0.0 -46.6798470930386 -68.12396374011628 -6.171076683509892 -121.20581741655614 1.9515069481369517e-15 3.4637780326045217e-15 0.0 0.0 0.0 0.0 0.0 0.0 8.886954724467778 -1.0192774864294265 -1.8493287571703405 0.0 0.0 0.0 46.58675963989894 52.06603549830803 -82.02694477114362 90.96510810389128 -4.4599417641725466e-15 4.53570631625411e-15 0.0 0.0 -1.5902773407317584e-15 0.0 0.0 0.0 -0.6074844600606276 -4.974188813636075 -3.964101409276144 1.7595608052389768 30.307793213368125 0.8764242213185665 0.0 0.0 3.975693351829396e-16
0.0 0.0 822.3830070177111 20.043602669815407 -4.97346702817895 5.68765428658837 0.0 0.0 3.975693351829396e-16 -0.3501205356481033 -2.8447768070784436 -1.9724407417082168 2.206204034058477 23.545867730367654 -0.10465641368735014 0.0 0.0 3.975693351829396e-16 0.0 0.0 3.975693351829396e-16 -0.4494762304661145 -3.647563464612338 -5.472448762581408 -4.68928980229741 2.2674149362275474e-15 -1.061127573763209e-16 0.0 -2.4848083448933725e-17 0.0 -47.08711597240194 -68.16932336578478 -6.595546268170758 -121.3322935788358 -5.9350242696253526e-15 2.423106425889551e-15 0.0 0.0 0.0 0.0 -2.4848083448933725e-17 0.0 8.84362759801838 -1.2294879549951503 -1.791104448195479 0.0 -2.4848083448933725e-17 0.0 46.821672739400576 52.012085852712765 -81.98865454393663 91.06978167531484 8.398158714793124e-17 8.995575120427601e-15 0.0 0.0 0.0 0.0 0.0 3.975693351829396e-16 -0.6118047790288987 -4.956183802178882 -4.0255827499888035 1.7836649485833485 30.542793350426553 0.9336691977246111 -1.3793457181406746e-33 1.987846675914698e-16 7.951386703658792e-16
0.0 0.0 822.3830070177111 19.977092151117404 -5.029145081008232 5.670829441078481 0.0 0.0 -3.975693351829396e-16 -0.32364862145981244 -2.658561748235678 -2.008268340752411 2.157953266577751 23.554263729075316 -0.015260844130138541 0.0 0.0 3.975693351829396e-16 0.0 0.0 -3.975693351829396e-16 -0.4409663117448159 -3.6175232338274785 -5.498527225288268 -4.68432158542983 2.0525442525111108e-15 2.829024006239987e-16 0.0 0.0 -1.987846675914698e-16 -47.236694035639765 -68.24089664991116 -6.931470628707508 -121.084732947098 6.320808787073949e-15 -1.7435798303523696e-15 0.0 0.0 0.0 0.0 0.0 -1.987846675914698e-16 8.811904670158105 -1.2423854036416437 -1.6387142131910402 0.0 0.0 -1.987846675914698e-16 47.13274299485708 52.07126337638641 -82.02557408711016 91.13789101859888 4.45309768918348e-15 -4.542425926496406e-15 6.3611093629270335e-15 -3.531125038440127e-31 -6.3611093629270335e-15 0.0 0.0 -3.975693351829396e-16 -0.5945125185363558 -4.868977283167662 -3.9988217558997516 1.7383508911958878 30.311106227912532 0.8813639742024724 0.0 0.0 -3.975693351829396e-16
